<?xml version="1.0" encoding="UTF-8" standalone="no"?>
<!DOCTYPE svg PUBLIC "-//W3C//DTD SVG 1.1//EN" "http://www.w3.org/Graphics/SVG/1.1/DTD/svg11.dtd">
<!-- Created with Vectornator (http://vectornator.io/) -->
<svg height="100%" stroke-miterlimit="10" style="fill-rule:nonzero;clip-rule:evenodd;stroke-linecap:round;stroke-linejoin:round;" version="1.1" viewBox="0 0 532.39 401.53" width="100%" xml:space="preserve" xmlns="http://www.w3.org/2000/svg" xmlns:vectornator="http://vectornator.io" xmlns:xlink="http://www.w3.org/1999/xlink">
<defs/>
<clipPath id="ArtboardFrame">
<rect height="401.53" width="532.39" x="0" y="0"/>
</clipPath>
<g clip-path="url(#ArtboardFrame)" id="Ebene-1" vectornator:layerName="Ebene 1" visibility="hidden">
<path d="M-90.7333-56.0334L608.175-56.0334L608.175 480.177L-90.7333 480.177L-90.7333-56.0334Z" fill="#000000" fill-rule="nonzero" opacity="1" stroke="#c2d047" stroke-linecap="butt" stroke-linejoin="round" stroke-width="5"/>
</g>
<g id="Ohne-Titel" vectornator:layerName="Ohne Titel">
<g opacity="1" vectornator:layerName="g">
<g opacity="1" vectornator:layerName="g">
<path d="M325.9 203.84C321.37 208.57 316.39 211.93 310.04 212.62C303.54 213.33 298.2 210.75 293.34 206.04C293.08 207.19 292.86 207.99 292.71 208.81C290.59 220.84 287.12 232.44 281.66 243.41C278.44 249.88 274 255.31 268.15 259.54C260.51 265.07 252.25 266.02 243.62 262.32C240.41 260.95 237.45 258.99 234.42 257.23C232.96 256.38 231.63 255.33 230.19 254.45C228.35 253.33 226.55 252.72 224.15 253.1C221.24 253.56 218.18 253.04 215.22 252.95C215.22 254.48 215.22 256.4 215.22 258.32C215.22 259.47 215.27 260.62 215.18 261.76C214.9 265.3 212.33 268.13 209.03 268.59C205.67 269.06 202.23 267.2 201.31 263.74C200.49 260.65 200.22 257.37 200.05 254.15C199.63 246.27 199.4 238.38 199.09 230.49C199.07 229.98 198.94 229.48 198.83 228.8C198.31 229.06 197.94 229.18 197.64 229.4C188.26 236.43 176.04 236.32 165.96 229.66C163.26 227.88 160.86 225.65 158.17 223.85C155.38 221.99 152.56 220.04 149.48 218.79C143.93 216.54 138.43 217.33 133.86 221.2C130.76 223.83 128.04 227 125.52 230.23C119.96 237.35 115.13 245.1 109.08 251.76C101.35 260.27 91.88 266.54 80.19 268.57C66.17 271.01 53.59 267.22 41.93 259.58C26.82 249.69 17.86 235.21 12.08 218.63C2.84 192.12 4.56 166.25 17.21 141.04C23.69 128.13 32.54 116.93 41.28 105.6C46.85 98.39 52.23 91.02 57.61 83.66C58.18 82.88 58.43 81.68 58.42 80.68C58.24 70.76 57.7 60.84 57.82 50.93C57.92 42.16 58.51 33.35 61.29 24.94C62.51 21.27 64.05 17.53 66.25 14.38C73.38 4.15 86.41 4.6 93.16 15.1C97.55 21.92 98.67 29.48 97.99 37.43C96.85 50.67 90.85 62.07 84.51 73.35C83.36 75.39 82.19 77.41 81.03 79.44C81.14 79.57 81.25 79.71 81.36 79.84C82.21 79.39 83.05 78.92 83.9 78.48C93.72 73.43 104.62 75.35 110.79 83.47C116.08 90.43 116.65 98.23 113.96 106.36C112.37 111.19 109.61 115.33 106.13 119.01C105.52 119.65 104.74 120.22 105.72 121.18C110.49 125.79 115.27 130.38 121.54 132.96C128.72 135.92 135.7 134.98 142.5 131.73C153.41 126.52 161.25 118 167.74 108.07C169.48 105.41 169.4 105.44 167.39 103C158.54 92.27 155.47 80.29 160.04 66.89C162.12 60.77 166.03 55.91 171.6 52.47C180.95 46.7 191.94 50.39 195.94 60.64C198.03 66 198.14 71.56 196.77 76.98C195.1 83.57 192.79 89.99 190.75 96.48C190.49 97.3 190.16 98.1 189.75 99.24C192.88 99.94 195.81 99.85 198.67 99.18C205.81 97.51 211.52 93.36 216.73 88.43C221.93 83.51 226.01 77.76 229.5 71.53C234.29 62.97 238.2 54.04 241.76 44.9C244.55 37.74 248.62 31.44 255.95 27.91C267.79 22.21 281.4 25.85 289.04 36.92C294.61 45 296.06 53.86 293.96 63.38C293.87 63.77 293.81 64.17 293.78 64.56C293.77 64.67 293.9 64.79 294.17 65.24C296.61 63.94 299.18 62.78 301.53 61.29C311.96 54.67 320.23 46.06 325.51 34.77C326.17 33.36 326.87 31.97 327.67 30.64C329.52 27.54 332.17 25.76 335.89 26.26C339.69 26.78 341.8 29.27 342.78 32.81C343.15 34.14 343.33 35.53 343.66 37.23C348.02 33.39 352.55 30.44 358.2 30.21C363.99 29.97 368.42 32.72 371.99 37.42C372.61 36.87 373.14 36.4 373.67 35.93C377.63 32.42 382.07 30.1 387.51 30.05C394.71 29.98 399.71 33.38 402.82 39.72C405.16 44.49 405.67 49.69 406.05 54.89C406.83 65.52 407.59 76.16 408.23 86.8C408.62 93.28 410.03 99.49 412.55 105.45C414.7 110.55 418.06 114.54 423.39 116.6C427.83 118.32 431.97 117.28 435.13 113.7C436.99 111.59 438.33 109.3 439.11 106.53C441.57 97.76 446.48 90.78 454.84 86.68C460.82 83.75 466.87 83.94 472.71 87.19C474.03 87.92 474.92 88.1 476.29 87.1C480.63 83.94 486.43 86.98 487.08 92.67C487.3 94.61 487.2 96.59 487.37 98.54C488.3 108.95 492.15 118.04 499.89 125.21C503.17 128.25 507.28 129.58 511.76 129.7C514.86 129.78 517.99 129.67 521.05 130.05C524.63 130.49 526.97 133.41 527 136.89C527.04 140.89 525.2 143.28 521.43 144.16C513.07 146.11 504.76 145.84 497.19 141.7C493.03 139.42 490.11 136.75 485.87 132.73C485.26 132.23 484.8 131.55 484.06 130.71C483.53 131.45 483.12 132.02 482.71 132.59C477.67 139.54 471.31 144.04 462.3 143.46C458.47 143.21 455.2 142.38 451.89 140.08C450.18 139.06 448.2 137.5 446.68 136.11C444.56 134.17 442.77 131.88 440.95 129.87C438.05 130.75 435.11 131.99 432.05 132.5C419.74 134.57 410.3 129.55 403.07 119.94C398.2 113.46 396.47 105.72 394.91 97.91C392.12 83.94 391.88 69.75 390.84 55.63C390.63 52.82 390.11 50.01 389.45 47.27C388.93 45.13 387.52 44.52 385.84 45.9C383.91 47.49 381.97 49.4 380.88 51.58C379.45 54.43 378.84 57.69 377.88 60.78C377.5 62 377.29 63.29 376.76 64.44C375.34 67.52 372.27 69.26 369.06 68.96C365.88 68.66 363.13 66.35 362.47 62.98C361.86 59.87 361.69 56.69 361.22 53.55C360.91 51.49 360.55 49.41 359.96 47.42C359.34 45.32 358.56 45.12 356.69 46.33C353.74 48.25 351.62 50.95 350.77 54.29C349.55 59.11 348.69 64.04 347.85 68.95C347.45 71.27 347.49 73.66 347.3 76.01C346.97 80.18 343.78 83.4 339.89 83.51C336.02 83.62 332.65 80.8 332.15 76.65C331.51 71.29 331.15 65.9 330.66 60.52C330.54 59.2 330.39 57.89 330.2 56.11C328.52 57.88 327.05 59.23 325.8 60.76C320.72 67.04 314.11 71.34 307.15 75.13C298.49 79.84 289.35 83.29 279.55 84.69C269.61 86.11 260.24 84.82 252.34 77.98C250.27 76.19 248.51 74.03 246.43 71.85C246.08 72.51 245.73 73.12 245.42 73.75C239.1 86.88 230.59 98.2 218.46 106.54C209.67 112.58 200.12 115.95 189.29 114.68C187.69 114.49 186.07 114.2 184.54 113.72C183.04 113.25 182.21 113.66 181.38 114.96C176.37 122.87 170.5 130.06 163.38 136.22C156.61 142.08 149.22 146.78 140.47 149.04C127.01 152.52 115.04 149.18 104.45 140.62C100.22 137.2 96.42 133.23 92.48 129.45C91.23 128.24 90.01 127.84 88.18 127.95C85.53 128.1 82.84 127.55 80.17 127.24C79.46 127.16 78.76 126.88 77.71 126.6C77.5 129.09 77.23 131.4 77.14 133.73C77.04 136.43 77.15 139.13 77.09 141.83C76.98 146.59 73.85 149.96 69.59 149.98C65.35 150.01 62.05 146.65 61.8 142C61.62 138.7 61.49 135.39 61.34 132.09C60.96 123.73 60.57 115.37 60.19 107.01C60.17 106.57 60.08 106.13 60 105.47C59.61 105.77 59.36 105.88 59.22 106.06C51.34 116.6 43.02 126.85 35.71 137.78C28.24 148.96 22.97 161.29 21.37 174.86C18.74 197.18 24.02 217.51 37.18 235.7C42.6 243.2 49.49 249.19 58.3 252.43C64.63 254.76 71.2 255.43 78.01 254.38C88.99 252.69 96.15 245.59 102.55 237.49C106.97 231.89 110.8 225.82 115.13 220.13C117.49 217.03 120.11 214.05 123.01 211.46C133.19 202.33 146.25 200.6 158.38 206.93C162.41 209.03 166.03 211.97 169.71 214.69C172.88 217.03 175.98 219.37 179.99 220.12C183.58 220.79 187.06 220.32 189.76 217.98C192.58 215.53 194.91 212.52 197.35 209.66C197.8 209.13 197.85 208.14 197.83 207.36C197.56 194.06 197.22 180.76 196.95 167.46C196.79 159.76 196.65 152.04 198.27 144.46C198.85 141.72 199.66 138.91 200.96 136.45C204.38 129.96 211.33 127.67 218.11 130.48C224.71 133.21 228.48 138.46 230.75 144.95C233.25 152.1 232.98 159.45 231.93 166.79C230.23 178.63 226.29 189.7 220.26 200.03C220 200.48 219.78 200.96 219.35 201.81C220.23 201.44 220.77 201.25 221.27 200.99C233.28 194.62 246.86 202.25 248.52 215.73C249.71 225.4 246.5 233.8 240.93 241.49C240.53 242.04 240.11 242.56 239.72 243.11C239.65 243.21 239.66 243.36 239.58 243.77C243.4 246.31 247.1 249.32 251.82 250.36C255.67 251.2 258.79 249.45 261.54 246.92C265.14 243.62 267.64 239.54 269.7 235.2C275.49 222.97 278.68 210.02 279.72 196.59C280.51 186.36 280.72 176.09 281.41 165.86C281.58 163.3 282.37 160.7 283.32 158.29C284.6 155.05 287.79 153.41 290.97 153.89C294.21 154.38 296.84 157 297.17 160.47C297.49 163.82 297.3 167.23 297.71 170.57C298.46 176.58 299.33 182.59 300.48 188.53C300.9 190.72 302.03 192.87 303.25 194.78C305.64 198.55 308.92 199.2 312.29 196.33C314.5 194.44 316.52 192.09 317.9 189.55C319.52 186.56 320.38 183.16 321.54 179.92C322 178.65 322.27 177.3 322.85 176.09C324.23 173.18 326.5 171.39 329.81 171.36C333.13 171.33 335.39 173.08 336.84 175.98C337.13 176.57 337.41 177.17 337.79 177.98C338.38 177.35 338.83 176.88 339.26 176.4C347.64 167.06 361.35 167.75 368.67 177.95C373.25 184.33 374.78 191.69 375.08 199.37C375.44 208.34 375.5 217.33 376.15 226.29C376.5 231.1 377.65 235.87 378.72 240.59C379.37 243.44 381.27 245.62 383.78 247.18C385.75 248.41 387.38 248.3 389.15 246.78C391.68 244.6 392.68 241.64 392.74 238.48C392.89 231.36 394.54 224.78 398.51 218.77C404.73 209.37 415.95 205.28 426.7 208.66C427.4 208.88 428.09 209.1 429.1 209.41C429.1 208.26 429.14 207.28 429.09 206.31C428.47 192.4 428.34 178.5 429.63 164.62C429.73 163.55 429.89 162.46 430.18 161.43C431.17 157.95 434.17 155.92 437.67 156.27C441.07 156.61 443.7 159.33 443.8 162.97C443.92 167.42 443.71 171.89 443.81 176.34C444.12 190.24 444.25 204.15 444.98 218.04C445.32 224.53 446.58 231.02 448.01 237.38C448.76 240.72 450.66 243.85 452.31 246.93C452.89 248.02 454.15 249.02 455.33 249.46C459.46 250.97 463.72 251.54 468.02 250.07C468.97 249.75 469.91 249.32 470.75 248.77C474.28 246.44 474.55 245.39 472.98 241.56C469.28 232.47 467.46 222.94 466.59 213.21C465.59 202 465.61 190.81 467.79 179.72C468.79 174.65 470.4 169.79 473.5 165.55C480.51 155.97 492.33 155.82 499.53 165.25C503.84 170.9 505.48 177.53 505.78 184.42C506.68 204.98 501.77 224.32 492.82 242.71C492.01 244.38 492.28 245.2 493.67 246.19C500.03 250.72 506.96 250.93 514.19 249.02C515.36 248.71 516.52 248.3 517.7 248.05C521.7 247.2 525.22 249.16 526.37 252.84C527.39 256.1 525.67 259.85 522.03 261.18C509.18 265.88 496.73 265.61 485.18 257.43C483.78 256.44 483.06 256.47 481.81 257.61C475.55 263.34 467.88 264.27 459.84 263.71C458.09 263.59 456.34 263.43 454.62 263.14C447.97 262.01 443.16 258.02 439.04 252.98C438.83 252.72 438.73 252.39 438.34 251.63C436.84 253.3 435.79 254.6 434.6 255.77C424.91 265.33 412.32 264.96 403.33 254.8C402.18 253.5 401.63 253.54 400.66 254.97C394.59 263.86 385.14 265.93 375.86 260.43C368.03 255.79 363.64 248.7 362.12 239.92C361.1 234.08 360.42 228.16 360.02 222.25C359.57 215.52 359.62 208.75 359.42 202C359.3 197.8 359.02 193.62 357.29 189.7C356.38 187.63 355.37 185.49 352.79 185.23C350.15 184.96 348.15 186.25 346.63 188.41C344.27 191.76 343.64 195.62 343.39 199.54C342.97 206.07 342.75 212.62 342.4 219.16C342.16 223.62 339.33 226.67 335.36 226.84C331.38 227.01 328.18 223.99 327.67 219.49C327.16 215 326.73 210.49 326.25 206C326.2 205.35 326.07 204.78 325.9 203.84ZM279.88 57.51C279.77 51.44 278.4 46.81 274.51 43.27C270.76 39.85 266.32 39.29 261.67 40.98C257.63 42.45 255.51 45.61 254.92 49.81C254.72 51.21 254.58 52.62 254.46 54.03C253.83 61.44 256.84 66.62 263.6 69.78C268.37 72.02 273.84 70.55 276.82 66.21C278.81 63.31 280.1 60.17 279.88 57.51ZM451.64 112.73C451.78 116.51 452.21 119.93 454.08 122.95C456.44 126.76 459.95 128.43 464.37 128.03C468.46 127.66 470.96 125.17 472.38 121.5C474.45 116.13 473.93 110.85 471.36 105.81C468.92 101.03 465.21 99.05 460.72 99.77C456.45 100.46 452.9 103.97 452.11 108.38C451.85 109.93 451.77 111.48 451.64 112.73ZM483.33 226.88C483.52 226.86 483.71 226.85 483.9 226.83C484.02 226.67 484.18 226.53 484.24 226.35C488.85 213.42 491.97 200.2 491.46 186.36C491.31 182.24 490.69 178.13 488.41 174.53C487.1 172.46 485.92 172.37 484.94 174.58C483.59 177.63 482.38 180.85 481.78 184.12C479.89 194.56 480.17 205.08 481.47 215.57C481.94 219.35 482.7 223.1 483.33 226.88ZM429.43 235.45C429.51 235.42 429.02 230.7 428.3 228.48C426.36 222.48 419.02 220.21 413.92 223.91C407.97 228.23 407.32 238.55 412.71 244.11C415.39 246.87 418.7 247.7 422.38 246.7C425.97 245.73 428.13 243.29 428.9 239.67C429.19 238.28 429.26 236.86 429.43 235.45ZM215.95 234.39C219.41 235 222.55 235.58 225.7 236.08C226.08 236.14 226.66 235.92 226.93 235.63C231.58 230.64 234.85 225.03 234.25 217.89C233.87 213.42 228.62 211.33 224.99 213.96C218.12 218.94 216.81 226.57 215.95 234.39ZM79.66 109.39C83.46 111.08 87.65 111.45 91.64 111.19C92.21 111.43 93.73 109.8 94.19 109.39C97.21 106.74 99.31 103.44 100.13 99.49C100.72 96.64 100.32 93.83 97.88 91.94C95.62 90.19 93.14 90.6 90.68 91.36C83.15 93.67 81.36 104.33 79.66 109.39ZM72.89 61.51C73.13 61.56 73.38 61.61 73.62 61.66C74.52 59.95 75.45 58.25 76.33 56.52C79.69 49.93 82.3 43.1 82.93 35.65C83.26 31.68 82.76 27.85 80.96 24.26C80.65 23.65 79.9 22.73 79.52 22.8C78.88 22.92 78.16 23.63 77.84 24.27C77.04 25.89 76.31 27.58 75.79 29.31C73.44 37.2 73.1 45.36 72.89 53.51C72.83 56.18 72.89 58.84 72.89 61.51ZM212.91 144.29C209.96 151.3 212.01 170.88 211.86 183.97C212.32 183.68 212.54 183.36 212.68 183.02C215.57 175.71 217.66 168.17 218.09 160.31C218.27 156.93 217.78 153.47 217.2 150.11C216.81 147.85 215.17 144.69 212.91 144.29ZM176.3 90C176.57 89.93 176.84 89.85 177.11 89.78C179.72 83.49 181.9 77.05 182.3 70.2C182.39 68.58 182.08 65.66 180.8 65.25C178.78 65.95 177.44 66.69 176.37 67.96C172.76 72.35 172.63 77.65 173.77 82.97C174.29 85.38 175.44 87.66 176.3 90Z" fill="#f1e3ff" fill-rule="nonzero" opacity="1" stroke="none" vectornator:layerName="path"/>
<path d="M289.03 130.93C285.37 130.97 282.52 128.11 282.5 124.39C282.48 120.72 285.2 117.9 288.8 117.88C292.45 117.86 295.43 120.72 295.5 124.32C295.56 127.97 292.7 130.9 289.03 130.93Z" fill="#f1e3ff" fill-rule="nonzero" opacity="1" stroke="none" vectornator:layerName="path"/>
</g>
<g opacity="1" vectornator:layerName="g">
<path d="M59.26 312.64L65.16 312.64L57.25 321.26L65.75 333.06L60.16 333.06L54.15 324.32L50.56 328.18L50.56 333.06L45.88 333.06L45.88 303.55L50.56 303.55L50.56 322.59L59.26 312.64Z" fill="#f1e3ff" fill-rule="nonzero" opacity="1" stroke="none" vectornator:layerName="path"/>
<path d="M86.45 324.21L70.91 324.21C71.09 325.84 71.68 327.13 72.68 328.09C73.68 329.05 74.99 329.53 76.61 329.53C77.69 329.53 78.66 329.27 79.52 328.74C80.38 328.21 81 327.51 81.37 326.62L86.09 326.62C85.46 328.69 84.29 330.36 82.57 331.64C80.85 332.92 78.83 333.55 76.49 333.55C73.45 333.55 70.99 332.54 69.11 330.52C67.23 328.5 66.3 325.94 66.3 322.85C66.3 319.83 67.24 317.3 69.13 315.26C71.02 313.22 73.46 312.19 76.45 312.19C79.44 312.19 81.86 313.19 83.71 315.2C85.56 317.21 86.48 319.73 86.48 322.77L86.45 324.21ZM76.45 315.99C74.98 315.99 73.76 316.42 72.79 317.29C71.82 318.16 71.22 319.31 70.98 320.75L81.84 320.75C81.63 319.31 81.05 318.15 80.11 317.29C79.17 316.42 77.95 315.99 76.45 315.99Z" fill="#f1e3ff" fill-rule="nonzero" opacity="1" stroke="none" vectornator:layerName="path"/>
<path d="M100.02 333.54C96.87 333.54 94.32 332.5 92.37 330.43C90.42 328.36 89.44 325.84 89.44 322.88C89.44 319.92 90.42 317.39 92.37 315.31C94.32 313.23 96.87 312.18 100.02 312.18C103.19 312.18 105.76 313.22 107.71 315.31C109.66 317.39 110.64 319.92 110.64 322.88C110.64 325.84 109.66 328.36 107.71 330.43C105.76 332.5 103.19 333.54 100.02 333.54ZM94.12 322.87C94.12 324.81 94.68 326.38 95.79 327.59C96.9 328.8 98.31 329.4 100.02 329.4C101.75 329.4 103.17 328.8 104.29 327.59C105.4 326.38 105.96 324.81 105.96 322.87C105.96 320.9 105.4 319.32 104.29 318.11C103.17 316.9 101.75 316.3 100.02 316.3C98.31 316.3 96.91 316.9 95.79 318.11C94.68 319.32 94.12 320.91 94.12 322.87Z" fill="#f1e3ff" fill-rule="nonzero" opacity="1" stroke="none" vectornator:layerName="path"/>
<path d="M132.75 321.34L132.75 333.06L128.07 333.06L128.07 320.82C128.07 317.73 126.78 316.18 124.21 316.18C122.82 316.18 121.71 316.63 120.89 317.52C120.07 318.41 119.65 319.63 119.65 321.18L119.65 333.06L114.97 333.06L114.97 312.64L119.3 312.64L119.3 315.35C119.8 314.43 120.56 313.67 121.58 313.07C122.6 312.47 123.87 312.16 125.4 312.16C128.23 312.16 130.28 313.24 131.54 315.39C133.27 313.24 135.58 312.16 138.46 312.16C140.85 312.16 142.68 312.9 143.97 314.38C145.25 315.86 145.9 317.81 145.9 320.22L145.9 333.05L141.22 333.05L141.22 320.81C141.22 317.72 139.93 316.17 137.36 316.17C135.94 316.17 134.82 316.62 134 317.53C133.17 318.45 132.75 319.71 132.75 321.34Z" fill="#f1e3ff" fill-rule="nonzero" opacity="1" stroke="none" vectornator:layerName="path"/>
<path d="M157.38 333.54C154.97 333.54 153.17 332.98 151.99 331.85C150.81 330.72 150.22 329.23 150.22 327.37C150.22 323.83 152.84 321.68 158.06 320.93L163.95 320.09L163.95 319.77C163.95 317.28 162.49 316.03 159.58 316.03C157.04 316.03 155.59 317.04 155.25 319.06L150.69 319.06C150.9 317.07 151.73 315.42 153.19 314.12C154.65 312.82 156.82 312.17 159.7 312.17C162.61 312.17 164.81 312.84 166.29 314.18C167.77 315.52 168.51 317.39 168.51 319.81L168.51 329.21C168.51 330.86 168.71 332.15 169.1 333.07L164.65 333.07C164.62 333.07 164.59 332.97 164.55 332.78C164.51 332.58 164.47 332.26 164.43 331.82C164.39 331.37 164.37 330.9 164.37 330.4C162.99 332.49 160.66 333.54 157.38 333.54ZM163.95 323.5L158.53 324.34C155.98 324.73 154.71 325.69 154.71 327.23C154.71 329 155.92 329.88 158.33 329.88C160.14 329.88 161.53 329.4 162.5 328.43C163.47 327.47 163.96 326.25 163.96 324.79L163.96 323.5L163.95 323.5Z" fill="#f1e3ff" fill-rule="nonzero" opacity="1" stroke="none" vectornator:layerName="path"/>
<path d="M197.67 312.64L203.57 312.64L195.66 321.26L204.16 333.06L198.57 333.06L192.56 324.32L188.97 328.18L188.97 333.06L184.29 333.06L184.29 303.55L188.97 303.55L188.97 322.59L197.67 312.64Z" fill="#f1e3ff" fill-rule="nonzero" opacity="1" stroke="none" vectornator:layerName="path"/>
<path d="M208.84 309.22C207.97 309.22 207.27 308.95 206.72 308.41C206.17 307.87 205.89 307.18 205.89 306.34C205.89 305.47 206.17 304.77 206.72 304.22C207.27 303.67 207.98 303.39 208.84 303.39C209.68 303.39 210.37 303.67 210.92 304.22C211.47 304.77 211.75 305.48 211.75 306.34C211.75 307.18 211.47 307.87 210.92 308.41C210.37 308.95 209.68 309.22 208.84 309.22ZM206.48 333.06L206.48 312.64L211.16 312.64L211.16 333.06L206.48 333.06Z" fill="#f1e3ff" fill-rule="nonzero" opacity="1" stroke="none" vectornator:layerName="path"/>
<path d="M221.15 312.64L221.15 315.35C221.62 314.46 222.4 313.7 223.49 313.09C224.58 312.48 225.9 312.17 227.44 312.17C229.85 312.17 231.72 312.9 233.05 314.37C234.37 315.84 235.04 317.79 235.04 320.23L235.04 333.06L230.36 333.06L230.36 320.82C230.36 319.38 230.03 318.24 229.36 317.42C228.69 316.59 227.67 316.18 226.31 316.18C224.81 316.18 223.64 316.63 222.79 317.52C221.94 318.41 221.51 319.64 221.51 321.22L221.51 333.06L216.83 333.06L216.83 312.64C216.83 312.64 221.15 312.64 221.15 312.64Z" fill="#f1e3ff" fill-rule="nonzero" opacity="1" stroke="none" vectornator:layerName="path"/>
<path d="M255.18 315.32L255.18 303.56L259.86 303.56L259.86 333.07L255.53 333.07L255.53 330.16C254.14 332.42 251.84 333.54 248.65 333.54C245.74 333.54 243.44 332.52 241.75 330.49C240.06 328.46 239.21 325.92 239.21 322.88C239.21 319.84 240.06 317.29 241.75 315.25C243.44 313.21 245.74 312.18 248.65 312.18C251.61 312.17 253.79 313.22 255.18 315.32ZM255.38 322.87C255.38 320.96 254.86 319.38 253.83 318.15C252.79 316.92 251.4 316.3 249.64 316.3C247.91 316.3 246.52 316.92 245.47 318.15C244.42 319.38 243.9 320.96 243.9 322.87C243.9 324.73 244.42 326.29 245.47 327.53C246.52 328.78 247.91 329.4 249.64 329.4C251.4 329.4 252.79 328.78 253.83 327.55C254.86 326.32 255.38 324.76 255.38 322.87Z" fill="#f1e3ff" fill-rule="nonzero" opacity="1" stroke="none" vectornator:layerName="path"/>
<path d="M270.25 333.06L265.57 333.06L265.57 303.55L270.25 303.55L270.25 333.06Z" fill="#f1e3ff" fill-rule="nonzero" opacity="1" stroke="none" vectornator:layerName="path"/>
</g>
<g opacity="1" vectornator:layerName="g">
<path d="M143.31 378.57L127.77 378.57C127.95 380.2 128.54 381.49 129.54 382.45C130.54 383.41 131.85 383.89 133.47 383.89C134.55 383.89 135.52 383.63 136.38 383.1C137.24 382.57 137.86 381.87 138.23 380.98L142.95 380.98C142.32 383.05 141.15 384.72 139.43 386C137.71 387.28 135.69 387.91 133.35 387.91C130.31 387.91 127.85 386.9 125.97 384.88C124.09 382.86 123.16 380.3 123.16 377.21C123.16 374.19 124.1 371.66 125.99 369.62C127.88 367.58 130.32 366.55 133.31 366.55C136.3 366.55 138.72 367.55 140.57 369.56C142.42 371.57 143.34 374.09 143.34 377.13L143.31 378.57ZM133.32 370.35C131.85 370.35 130.63 370.78 129.66 371.65C128.69 372.52 128.09 373.67 127.85 375.11L138.71 375.11C138.5 373.67 137.92 372.51 136.98 371.65C136.04 370.78 134.82 370.35 133.32 370.35Z" fill="#f1e3ff" fill-rule="nonzero" opacity="1" stroke="none" vectornator:layerName="path"/>
<path d="M165.42 375.7L165.42 387.42L160.74 387.42L160.74 375.18C160.74 372.09 159.45 370.54 156.88 370.54C155.49 370.54 154.38 370.99 153.56 371.88C152.74 372.77 152.32 373.99 152.32 375.54L152.32 387.42L147.64 387.42L147.64 367L151.97 367L151.97 369.71C152.47 368.79 153.23 368.03 154.25 367.43C155.27 366.83 156.54 366.52 158.07 366.52C160.9 366.52 162.95 367.6 164.21 369.75C165.94 367.6 168.25 366.52 171.13 366.52C173.52 366.52 175.35 367.26 176.64 368.74C177.92 370.22 178.57 372.17 178.57 374.58L178.57 387.41L173.89 387.41L173.89 375.17C173.89 372.08 172.6 370.53 170.03 370.53C168.61 370.53 167.49 370.98 166.67 371.89C165.84 372.81 165.42 374.07 165.42 375.7Z" fill="#f1e3ff" fill-rule="nonzero" opacity="1" stroke="none" vectornator:layerName="path"/>
<path d="M188.71 369.68C190.1 367.58 192.28 366.53 195.24 366.53C198.18 366.53 200.49 367.55 202.18 369.6C203.87 371.65 204.72 374.19 204.72 377.23C204.72 380.27 203.87 382.81 202.18 384.84C200.49 386.87 198.17 387.89 195.24 387.89C192.07 387.89 189.77 386.76 188.36 384.51L188.36 387.42L184.03 387.42L184.03 357.91L188.71 357.91L188.71 369.68ZM188.56 377.23C188.56 379.12 189.08 380.68 190.11 381.91C191.15 383.14 192.54 383.76 194.3 383.76C196.03 383.76 197.42 383.14 198.47 381.89C199.52 380.64 200.04 379.09 200.04 377.23C200.04 375.32 199.52 373.74 198.47 372.51C197.42 371.28 196.03 370.66 194.3 370.66C192.54 370.66 191.15 371.28 190.11 372.51C189.07 373.75 188.56 375.32 188.56 377.23Z" fill="#f1e3ff" fill-rule="nonzero" opacity="1" stroke="none" vectornator:layerName="path"/>
<path d="M220.07 366.85L220.07 371.22C219.7 371.17 219.35 371.14 219.01 371.14C215.49 371.14 213.74 373.03 213.74 376.81L213.74 387.43L209.06 387.43L209.06 367.01L213.39 367.01L213.39 369.84C214.54 367.82 216.55 366.81 219.41 366.81L220.07 366.85Z" fill="#f1e3ff" fill-rule="nonzero" opacity="1" stroke="none" vectornator:layerName="path"/>
<path d="M231.83 387.9C228.68 387.9 226.13 386.86 224.18 384.79C222.23 382.72 221.25 380.2 221.25 377.24C221.25 374.28 222.23 371.75 224.18 369.67C226.13 367.59 228.68 366.54 231.83 366.54C235 366.54 237.57 367.58 239.52 369.67C241.47 371.75 242.45 374.28 242.45 377.24C242.45 380.2 241.47 382.72 239.52 384.79C237.57 386.86 235.01 387.9 231.83 387.9ZM225.93 377.23C225.93 379.17 226.49 380.74 227.6 381.95C228.71 383.16 230.12 383.76 231.83 383.76C233.56 383.76 234.98 383.16 236.1 381.95C237.21 380.74 237.77 379.17 237.77 377.23C237.77 375.26 237.21 373.68 236.1 372.47C234.98 371.26 233.56 370.66 231.83 370.66C230.12 370.66 228.72 371.26 227.6 372.47C226.49 373.68 225.93 375.27 225.93 377.23Z" fill="#f1e3ff" fill-rule="nonzero" opacity="1" stroke="none" vectornator:layerName="path"/>
<path d="M249.14 363.58C248.27 363.58 247.57 363.31 247.02 362.77C246.47 362.23 246.19 361.54 246.19 360.7C246.19 359.83 246.47 359.13 247.02 358.58C247.57 358.03 248.28 357.75 249.14 357.75C249.98 357.75 250.67 358.03 251.22 358.58C251.77 359.13 252.05 359.84 252.05 360.7C252.05 361.54 251.77 362.23 251.22 362.77C250.68 363.31 249.98 363.58 249.14 363.58ZM246.78 387.42L246.78 367L251.46 367L251.46 387.42L246.78 387.42Z" fill="#f1e3ff" fill-rule="nonzero" opacity="1" stroke="none" vectornator:layerName="path"/>
<path d="M271.76 369.68L271.76 357.92L276.44 357.92L276.44 387.43L272.11 387.43L272.11 384.52C270.72 386.78 268.42 387.9 265.22 387.9C262.31 387.9 260.01 386.88 258.32 384.85C256.63 382.82 255.78 380.28 255.78 377.24C255.78 374.2 256.63 371.65 258.32 369.61C260.01 367.57 262.31 366.54 265.22 366.54C268.2 366.53 270.37 367.58 271.76 369.68ZM271.96 377.23C271.96 375.32 271.44 373.74 270.41 372.51C269.37 371.28 267.98 370.66 266.22 370.66C264.49 370.66 263.1 371.28 262.05 372.51C261 373.74 260.48 375.32 260.48 377.23C260.48 379.09 261 380.65 262.05 381.89C263.1 383.14 264.49 383.76 266.22 383.76C267.98 383.76 269.37 383.14 270.41 381.91C271.44 380.68 271.96 379.12 271.96 377.23Z" fill="#f1e3ff" fill-rule="nonzero" opacity="1" stroke="none" vectornator:layerName="path"/>
<path d="M300.95 378.57L285.41 378.57C285.59 380.2 286.18 381.49 287.18 382.45C288.18 383.41 289.49 383.89 291.11 383.89C292.19 383.89 293.16 383.63 294.02 383.1C294.88 382.57 295.5 381.87 295.87 380.98L300.59 380.98C299.96 383.05 298.79 384.72 297.07 386C295.35 387.28 293.33 387.91 290.99 387.91C287.95 387.91 285.49 386.9 283.61 384.88C281.73 382.86 280.8 380.3 280.8 377.21C280.8 374.19 281.74 371.66 283.63 369.62C285.52 367.58 287.96 366.55 290.95 366.55C293.94 366.55 296.36 367.55 298.21 369.56C300.06 371.57 300.98 374.09 300.98 377.13L300.95 378.57ZM290.96 370.35C289.49 370.35 288.27 370.78 287.3 371.65C286.33 372.52 285.73 373.67 285.49 375.11L296.35 375.11C296.14 373.67 295.56 372.51 294.62 371.65C293.68 370.78 292.46 370.35 290.96 370.35Z" fill="#f1e3ff" fill-rule="nonzero" opacity="1" stroke="none" vectornator:layerName="path"/>
<path d="M316.3 366.85L316.3 371.22C315.93 371.17 315.58 371.14 315.24 371.14C311.73 371.14 309.97 373.03 309.97 376.81L309.97 387.43L305.29 387.43L305.29 367.01L309.62 367.01L309.62 369.84C310.77 367.82 312.78 366.81 315.64 366.81L316.3 366.85Z" fill="#f1e3ff" fill-rule="nonzero" opacity="1" stroke="none" vectornator:layerName="path"/>
<path d="M321.81 395.55L325.2 387.08L317.05 367.01L322.05 367.01L327.47 381.41L333.22 367.01L338.1 367.01L326.45 395.61L321.81 395.55Z" fill="#f1e3ff" fill-rule="nonzero" opacity="1" stroke="none" vectornator:layerName="path"/>
<path d="M362.76 375.03L362.76 379.4L350.25 379.4L350.25 375.03L362.76 375.03Z" fill="#f1e3ff" fill-rule="nonzero" opacity="1" stroke="none" vectornator:layerName="path"/>
<path d="M385.47 381.88L391.12 367L395.96 367L387.62 387.42L383.21 387.42L374.91 367L379.87 367L385.47 381.88Z" fill="#f1e3ff" fill-rule="nonzero" opacity="1" stroke="none" vectornator:layerName="path"/>
<path d="M401.35 363.58C400.48 363.58 399.78 363.31 399.23 362.77C398.68 362.23 398.4 361.54 398.4 360.7C398.4 359.83 398.68 359.13 399.23 358.58C399.78 358.03 400.49 357.75 401.35 357.75C402.19 357.75 402.88 358.03 403.43 358.58C403.98 359.13 404.26 359.84 404.26 360.7C404.26 361.54 403.98 362.23 403.43 362.77C402.89 363.31 402.19 363.58 401.35 363.58ZM398.99 387.42L398.99 367L403.67 367L403.67 387.42L398.99 387.42Z" fill="#f1e3ff" fill-rule="nonzero" opacity="1" stroke="none" vectornator:layerName="path"/>
<path d="M428.15 378.57L412.61 378.57C412.79 380.2 413.38 381.49 414.38 382.45C415.38 383.41 416.69 383.89 418.31 383.89C419.39 383.89 420.36 383.63 421.22 383.1C422.08 382.57 422.7 381.87 423.07 380.98L427.79 380.98C427.16 383.05 425.99 384.72 424.27 386C422.55 387.28 420.53 387.91 418.19 387.91C415.15 387.91 412.69 386.9 410.81 384.88C408.93 382.86 408 380.3 408 377.21C408 374.19 408.94 371.66 410.83 369.62C412.72 367.58 415.16 366.55 418.15 366.55C421.14 366.55 423.56 367.55 425.41 369.56C427.26 371.57 428.18 374.09 428.18 377.13L428.15 378.57ZM418.15 370.35C416.68 370.35 415.46 370.78 414.49 371.65C413.52 372.52 412.92 373.67 412.68 375.11L423.54 375.11C423.33 373.67 422.75 372.51 421.81 371.65C420.87 370.78 419.65 370.35 418.15 370.35Z" fill="#f1e3ff" fill-rule="nonzero" opacity="1" stroke="none" vectornator:layerName="path"/>
<path d="M436.8 367.01L436.8 369.72C437.27 368.83 438.05 368.07 439.14 367.46C440.23 366.84 441.55 366.54 443.09 366.54C445.5 366.54 447.37 367.27 448.7 368.74C450.02 370.21 450.69 372.16 450.69 374.6L450.69 387.43L446.01 387.43L446.01 375.19C446.01 373.75 445.68 372.61 445.01 371.79C444.34 370.97 443.32 370.55 441.96 370.55C440.46 370.55 439.29 371 438.44 371.89C437.59 372.78 437.16 374.01 437.16 375.59L437.16 387.43L432.48 387.43L432.48 367.01C432.48 367.01 436.8 367.01 436.8 367.01Z" fill="#f1e3ff" fill-rule="nonzero" opacity="1" stroke="none" vectornator:layerName="path"/>
<path d="M460.52 367.01L460.52 369.72C460.99 368.83 461.77 368.07 462.86 367.46C463.95 366.84 465.27 366.54 466.81 366.54C469.22 366.54 471.09 367.27 472.42 368.74C473.74 370.21 474.41 372.16 474.41 374.6L474.41 387.43L469.73 387.43L469.73 375.19C469.73 373.75 469.4 372.61 468.73 371.79C468.06 370.97 467.04 370.55 465.68 370.55C464.18 370.55 463.01 371 462.16 371.89C461.31 372.78 460.88 374.01 460.88 375.59L460.88 387.43L456.2 387.43L456.2 367.01C456.2 367.01 460.52 367.01 460.52 367.01Z" fill="#f1e3ff" fill-rule="nonzero" opacity="1" stroke="none" vectornator:layerName="path"/>
<path d="M485.94 387.9C483.53 387.9 481.73 387.34 480.55 386.21C479.37 385.08 478.78 383.59 478.78 381.73C478.78 378.19 481.4 376.04 486.62 375.29L492.51 374.45L492.51 374.13C492.51 371.64 491.05 370.39 488.14 370.39C485.6 370.39 484.15 371.4 483.81 373.42L479.25 373.42C479.46 371.43 480.29 369.78 481.75 368.48C483.21 367.18 485.38 366.53 488.26 366.53C491.17 366.53 493.37 367.2 494.85 368.54C496.33 369.88 497.07 371.75 497.07 374.17L497.07 383.57C497.07 385.22 497.27 386.51 497.66 387.43L493.21 387.43C493.18 387.43 493.15 387.33 493.11 387.14C493.07 386.94 493.03 386.62 492.99 386.18C492.95 385.73 492.93 385.26 492.93 384.76C491.55 386.85 489.22 387.9 485.94 387.9ZM492.51 377.86L487.09 378.7C484.54 379.09 483.27 380.05 483.27 381.59C483.27 383.36 484.48 384.24 486.89 384.24C488.7 384.24 490.09 383.76 491.06 382.79C492.03 381.83 492.52 380.61 492.52 379.15L492.52 377.86L492.51 377.86Z" fill="#f1e3ff" fill-rule="nonzero" opacity="1" stroke="none" vectornator:layerName="path"/>
</g>
</g>
</g>
</svg>
